<?xml version="1.0" encoding="UTF-8"?><svg id="Ebene_1" xmlns="http://www.w3.org/2000/svg" viewBox="0 0 100 100"><defs><style>.cls-1{fill:#fff;}.cls-2{fill:#4c4e50;}</style></defs><rect class="cls-1" width="100" height="100"/><polygon class="cls-2" points="84.84 52.32 84.84 39.25 82.84 39.93 82.84 52.32 84.84 52.32"/><path class="cls-2" d="M72.84,47.03l-22.36,7.58c-.21,.07-.42,.11-.64,.11s-.43-.03-.64-.11l-22.36-7.58v18.75h.02l-.05,.26c0,2.23,10.31,7.21,23.01,7.21s22.98-4.98,22.98-7.21l-.05-.26h.08v-18.75Z"/><polygon class="cls-2" points="26.85 43.32 49.85 51.12 72.84 43.32 82.84 39.93 84.84 39.25 85.89 38.9 49.85 26.76 13.8 38.9 26.85 43.32"/><path class="cls-2" d="M81.48,55.38v7.63c0,1.3,1.05,2.36,2.36,2.36s2.36-1.05,2.36-2.36v-7.63c0-.64-.26-1.23-.68-1.65h-3.36c-.42,.43-.68,1.01-.68,1.65Z"/><polygon class="cls-2" points="81.86 52.32 81.86 53.73 82.16 53.73 85.52 53.73 85.82 53.73 85.82 52.32 84.84 52.32 82.84 52.32 81.86 52.32"/></svg>