<?xml version="1.0" encoding="UTF-8"?><svg id="Ebene_1" xmlns="http://www.w3.org/2000/svg" viewBox="0 0 100 100"><defs><style>.cls-1{fill:#fff;}.cls-2{fill:#4c4e50;}</style></defs><rect class="cls-1" width="100" height="100"/><g><path class="cls-2" d="M37.67,36.78c0-5.76-4.68-10.44-10.44-10.44s-10.44,4.68-10.44,10.44H8.65c0-10.25,8.34-18.59,18.59-18.59s18.59,8.34,18.59,18.59v6.86h-8.15v-6.86Z"/><path class="cls-2" d="M76.29,43.64H36.06c-3.12,0-5.66,2.53-5.66,5.66v26.85c0,3.13,2.53,5.66,5.66,5.66h40.23c3.12,0,5.66-2.54,5.66-5.66v-26.85c0-3.12-2.53-5.66-5.66-5.66Zm-17.75,19.45v3.51c0,.52-.42,.95-.95,.95h-2.84c-.52,0-.95-.42-.95-.95v-3.51c-1.3-.8-2.17-2.22-2.17-3.85,0-2.51,2.03-4.54,4.54-4.54s4.54,2.03,4.54,4.54c0,1.63-.87,3.06-2.17,3.85Z"/></g></svg>