<?xml version="1.0" encoding="UTF-8"?><svg id="Ebene_1" xmlns="http://www.w3.org/2000/svg" xmlns:xlink="http://www.w3.org/1999/xlink" viewBox="0 0 725.12 306.67"><defs><style>.cls-1{fill:url(#Unbenannter_Verlauf_140);}.cls-2{fill:url(#Unbenannter_Verlauf_233);}.cls-3{fill:#be1622;}.cls-4{fill:url(#Unbenannter_Verlauf_117);}.cls-5{fill:#e94e1b;}.cls-6{fill:#009fe3;}.cls-7{fill:url(#Unbenannter_Verlauf_177);}.cls-8{fill:url(#Unbenannter_Verlauf_209);}.cls-9{fill:url(#Unbenannter_Verlauf_256);}.cls-10{fill:url(#Unbenannter_Verlauf_95);}.cls-11{fill:#b17f4a;}.cls-12{fill:url(#Unbenannter_Verlauf_77);}.cls-13{fill:#ffed00;}.cls-14{fill:#e6007e;}.cls-15{fill:url(#Unbenannter_Verlauf_282);}.cls-16{fill:#063;}</style><linearGradient id="Unbenannter_Verlauf_282" x1="252.72" y1="266.84" x2="330.02" y2="222.21" gradientUnits="userSpaceOnUse"><stop offset=".15" stop-color="#7d4e24" stop-opacity=".8"/><stop offset=".5" stop-color="#ca9e67" stop-opacity=".4"/><stop offset=".92" stop-color="#7d4e24" stop-opacity=".7"/></linearGradient><linearGradient id="Unbenannter_Verlauf_233" x1="301.14" y1="206.86" x2="355.48" y2="112.74" gradientUnits="userSpaceOnUse"><stop offset="0" stop-color="#be1622" stop-opacity=".8"/><stop offset=".54" stop-color="#e94e1b" stop-opacity=".4"/><stop offset="1" stop-color="#be1622" stop-opacity=".5"/></linearGradient><linearGradient id="Unbenannter_Verlauf_209" x1="205.02" y1="185.63" x2="411.63" y2="66.34" gradientUnits="userSpaceOnUse"><stop offset=".05" stop-color="#e6332a" stop-opacity=".6"/><stop offset=".34" stop-color="#f39200" stop-opacity=".5"/><stop offset=".69" stop-color="#f28d00" stop-opacity=".6"/><stop offset=".93" stop-color="#e6332a" stop-opacity=".7"/></linearGradient><linearGradient id="Unbenannter_Verlauf_140" x1="498.68" y1="211.58" x2="622.64" y2="283.15" gradientUnits="userSpaceOnUse"><stop offset="0" stop-color="#7b1617"/><stop offset=".62" stop-color="#d04418" stop-opacity=".4"/><stop offset="1" stop-color="#fff" stop-opacity=".1"/></linearGradient><linearGradient id="Unbenannter_Verlauf_177" x1="379.55" y1="170.55" x2="537.68" y2="170.55" gradientUnits="userSpaceOnUse"><stop offset="0" stop-color="#91004f" stop-opacity=".8"/><stop offset=".22" stop-color="#9a0054" stop-opacity=".76"/><stop offset=".54" stop-color="#e6007e" stop-opacity=".02"/><stop offset=".91" stop-color="#91004f" stop-opacity=".7"/></linearGradient><linearGradient id="Unbenannter_Verlauf_117" x1="411.15" y1="102.8" x2="574.48" y2="102.8" gradientUnits="userSpaceOnUse"><stop offset="0" stop-color="#312b85" stop-opacity=".5"/><stop offset="0" stop-color="#312783"/><stop offset=".36" stop-color="#2581c4" stop-opacity="0"/><stop offset=".8" stop-color="#312783" stop-opacity=".5"/></linearGradient><linearGradient id="Unbenannter_Verlauf_95" x1="558.43" y1="123.23" x2="731.49" y2="23.31" gradientUnits="userSpaceOnUse"><stop offset="0" stop-color="#312783"/><stop offset=".12" stop-color="#2c2e87" stop-opacity=".98"/><stop offset=".69" stop-color="#009fe3" stop-opacity=".5"/><stop offset="1" stop-color="#fff" stop-opacity=".3"/></linearGradient><linearGradient id="Unbenannter_Verlauf_77" x1="602.81" y1="85.75" x2="625.63" y2="170.93" gradientUnits="userSpaceOnUse"><stop offset=".38" stop-color="#312783" stop-opacity=".8"/><stop offset=".79" stop-color="#009fe3" stop-opacity=".5"/><stop offset="1" stop-color="#312783" stop-opacity=".3"/></linearGradient><linearGradient id="Unbenannter_Verlauf_256" x1="92.17" y1="182.44" x2="283.62" y2="182.44" gradientUnits="userSpaceOnUse"><stop offset="0" stop-color="#00290d" stop-opacity=".8"/><stop offset=".53" stop-color="#95c11f" stop-opacity=".3"/><stop offset="1" stop-color="#003415" stop-opacity=".7"/></linearGradient></defs><path class="cls-11" d="m240.51,208.88h0s5.11,11.54,10.98,20.17c2.69,3.96,6.8,9.16,13.02,14.55,3.48,20.54,6.96,41.08,10.44,61.63,0,0,0,.04,0,.04.01.08.02.12.02.12h0c15.74.17,31.49.34,47.23.51-.74-8.28-3.64-12.76-6.13-15.32-4.25-4.36-12.25-8.17-12.26-8.17,0,0-.26-39.06-.26-39.06,0,0,7.49-7.3,12.26-16.09,4.55-8.38,6.64-18.13,6.64-18.13,0,0-12.67-15.63-29.11-21.96-14.98-5.77-33.18-3.83-33.19-3.83-5.5,10.06-9.45,15.06-14.14,20.15-2.42,2.47-5.52,5.39-5.52,5.39Z"/><path class="cls-15" d="m240.51,208.88h0s5.11,11.54,10.98,20.17c2.69,3.96,6.8,9.16,13.02,14.55,3.48,20.54,6.96,41.08,10.44,61.63,0,0,0,.04,0,.04.01.08.02.12.02.12h0c15.74.17,31.49.34,47.23.51-.74-8.28-3.64-12.76-6.13-15.32-4.25-4.36-12.25-8.17-12.26-8.17,0,0-.26-39.06-.26-39.06,0,0,7.49-7.3,12.26-16.09,4.55-8.38,6.64-18.13,6.64-18.13,0,0-12.67-15.63-29.11-21.96-14.98-5.77-33.18-3.83-33.19-3.83-5.5,10.06-9.45,15.06-14.14,20.15-2.42,2.47-5.52,5.39-5.52,5.39Z"/><path class="cls-5" d="m260.43,183.35s6.74.79,12.52.99c2.83.1,6.29.42,10.54,1.26,7.09,1.4,12.51,4.07,15.75,5.92,0,0,7.14,3.76,33.96,27.32,64.01.33,98.55.51,98.55.51,0,0-1.18-4.88-.26-7.66,0,0,0,0,0,0-10.27-21.1-34.62-64.55-81.96-100.09-47.6-35.74-93.77-45.91-97.3-46.54-.26-.05-6.37-1.13-6.36-1.2,0-.05,3.46.49,3.57.51,6.56,1.04,29.1,18.54,32.68,47.23,0,0,3.41,27.35-21.7,71.74h0Z"/><path class="cls-2" d="m260.43,183.35s6.74.79,12.52.99c2.83.1,6.29.42,10.54,1.26,7.09,1.4,12.51,4.07,15.75,5.92,0,0,7.14,3.76,33.96,27.32,64.01.33,98.55.51,98.55.51,0,0-1.18-4.88-.26-7.66,0,0,0,0,0,0-10.27-21.1-34.62-64.55-81.96-100.09-47.6-35.74-93.77-45.91-97.3-46.54-.26-.05-6.37-1.13-6.36-1.2,0-.05,3.46.49,3.57.51,6.56,1.04,29.1,18.54,32.68,47.23,0,0,3.41,27.35-21.7,71.74Z"/><path class="cls-13" d="m380.17,34.25s-90.84-.81-157.28-1.02c0,0-2.23,0-2.23,0h0s-26.14,3.73-50.36,15.32c-16.15,7.73-32.94,19.66-32.94,19.66h0s38.08-5.91,52.85-7.66c39.56-4.68,72,7.22,92.68,14.81,97.33,35.71,144.71,126.08,147.51,135.83.12.4.4,1.52.84,1.53,2.61.08,8.44-39.74,4.34-81.19-2.12-21.46-5.67-30.87-6.89-33.96-5.54-13.96-13.12-23.41-23.23-36-5.71-7.11-14.06-16.76-25.28-27.32Z"/><path class="cls-8" d="m380.06,34.29s-90.84-.81-157.28-1.02c0,0-2.23,0-2.23,0h0s-26.14,3.73-50.36,15.32c-16.15,7.73-32.94,19.66-32.94,19.66h0s38.08-5.91,52.85-7.66c39.56-4.68,72,7.22,92.68,14.81,97.33,35.71,144.71,126.08,147.51,135.83.12.4.4,1.52.84,1.53,2.61.08,8.44-39.74,4.34-81.19-2.12-21.46-5.67-30.87-6.89-33.96-5.54-13.96-13.12-23.41-23.23-36-5.71-7.11-14.06-16.76-25.28-27.32Z"/><path class="cls-3" d="m534.26,177.1c4.15,9.24,8.34,18.5,12.56,27.78,11.96,26.3,23.99,52.31,36.08,78.05,8.89-.21,13.77,2.39,16.6,4.85,6.77,5.89,9.96,18.13,9.96,18.13,0,0-43.15-.26-43.15-.26-44.92-50.83-73.78-83.48-73.79-83.49h0s14.44-11.05,24.64-21.83c4.8-5.07,11.07-12.63,17.11-23.23Z"/><path class="cls-1" d="m534.3,177.12c4.15,9.24,8.34,18.5,12.56,27.78,11.96,26.3,23.99,52.31,36.08,78.05,8.89-.21,13.77,2.39,16.6,4.85,6.77,5.89,9.96,18.13,9.96,18.13,0,0-43.15-.26-43.15-.26-44.92-50.83-73.78-83.48-73.79-83.49h0s14.44-11.05,24.64-21.83c4.8-5.07,11.07-12.63,17.11-23.23Z"/><path class="cls-14" d="m415.66,34.76h0c-34.69.08-34.98,0-34.98,0-.35-.09-.82-.23-1.02,0-1.91,2.12,29.12,25.36,44.68,55.91,9.1,17.86,10.29,33.2,12,53.87,2.95,35.66-3.54,63.77-9.45,89.36-5.78,25.02-15.83,57.7-15.83,57.7h0s.3.66,6.64,14.55c12.85.09,25.7.17,38.55.26.38-.68.86-1.73,1.02-3.06,0,0,.54-4.34-9.7-16.09,0,0,23.74-50.81,23.74-50.81,31.96-19.92,40.85-29.11,40.85-29.11,15-15.51,25.53-36.26,25.53-36.26-.03-.06-9.43-37.1-31.66-64.09-31.2-37.88-79.98-46.62-81.93-46.92-.19-.03-.29-.06-.29-.06,0,0,.23.08.29.06.7-.26-8.46-25.33-8.46-25.33Z"/><path class="cls-7" d="m415.64,34.78h0c-34.69.08-34.98,0-34.98,0-.35-.09-.82-.23-1.02,0-1.91,2.12,29.12,25.36,44.68,55.91,9.1,17.86,10.29,33.2,12,53.87,2.95,35.66-3.54,63.77-9.45,89.36-5.78,25.02-15.83,57.7-15.83,57.7h0s.3.66,6.64,14.55c12.85.09,25.7.17,38.55.26.38-.68.86-1.73,1.02-3.06,0,0,.54-4.34-9.7-16.09,0,0,23.74-50.81,23.74-50.81,31.96-19.92,40.85-29.11,40.85-29.11,15-15.51,25.53-36.26,25.53-36.26-.03-.06-9.43-37.1-31.66-64.09-31.2-37.88-79.98-46.62-81.93-46.92-.19-.03-.29-.06-.29-.06,0,0,.23.08.29.06.7-.26-8.46-25.33-8.46-25.33Z"/><path class="cls-6" d="m538.72,45.22h0s-27.05-12.86-52.6-19.15c-36.96-9.1-74.98-5.46-74.98-5.46h0s4.44,13.97,12.68,39.93c14.12,2.73,42.91,10.39,69.19,34.21,41.35,37.47,46.99,88.2,46.44,90.66,0,.03-.04.15.03.24,1.4,1.81,35.75-26.33,34.98-27.57-.02-.03-.51-.77-.51-.77h0s-11.18-6.23-18.38-14.55c-8.36-9.65-10.09-20.64-10.47-23.49-1.09-8.22.36-14.97,1.53-18.89,0,0-7.76-12.17-9.96-26.3h0c0-9.92,0-14.89.26-17.62.52-5.56,1.79-11.23,1.79-11.23Z"/><path class="cls-16" d="m274.21,79.44c25.42,32.77-8.18,94.54-13.28,103.91-2.39,4.39-4.9,8.13-5.11,8.43-12,17.74-26.78,27.11-33.7,31.4-19.97,12.38-39.38,16.25-51.06,17.62-25.34,26.89-41.61,44.17-41.62,44.17,0,0,6.63,4.57,9.45,9.96,1.17,2.24,2.34,5.86,1.53,11.49-14.89.09-29.79.17-44.68.26-3.48-18.9-3.57-19.4-3.57-19.4,0,0,25.79-73.53,25.79-73.53,0,0,13.49-9.85,16.85-12.77,18.85-16.35-3.31-55.29,13.02-103.15,2.91-8.52,5.15-14.87,10.98-21.45,19.99-22.53,56.57-18.18,65.62-17.11,16.91,2,37.58,4.44,49.79,20.17Z"/><path class="cls-4" d="m538.72,45.21h0s-27.05-12.86-52.6-19.15c-36.96-9.1-74.98-5.46-74.98-5.46h0s4.44,13.97,12.68,39.93c14.12,2.73,42.91,10.39,69.19,34.21,41.35,37.47,46.99,88.2,46.44,90.66,0,.03-.04.15.03.24,1.4,1.81,35.75-26.33,34.98-27.57-.02-.03-.51-.77-.51-.77h0s-11.18-6.23-18.38-14.55c-8.36-9.65-10.09-20.64-10.47-23.49-1.09-8.22.36-14.97,1.53-18.89,0,0-7.76-12.17-9.96-26.3h0c0-9.92,0-14.89.26-17.62.52-5.56,1.79-11.23,1.79-11.23Z"/><path class="cls-6" d="m669.96,131.18c-7.75-6.38-20.59-12.72-42.89-12.26,0,0-14.83-1.59-61.96,1.02-9.08-6.48-15.18-12.87-19.29-18.8-.5.53-.96,2.16-1.13,2.8-.59,2.11-3,17.17,4.09,30.64,11.26,21.41,43.29,35.53,70.13,30.64,14.02-2.55,14.51-8.09,31.66-10.21,19.27-2.39,36.91,2.33,38.13-1.7.09-.28-.09-.77-.48-1.49-4.53-6.2-11.57-15.14-18.25-20.63Z"/><path class="cls-6" d="m717.32.14c3.76,0,12.36,33.37,4.77,69.45-5.8,27.56-19.17,47.77-28.94,59.91,2.7,8.03,2.67,14.14,2.04,18.38-.48,3.26-2.11,10.87-2.11,10.88,0,0-12.06-18.49-23.08-27.56-7.75-6.38-20.59-12.72-42.89-12.26,0,0-14.83-1.59-61.96,1.02-18.76-13.38-24.8-26.4-26.89-35.74-1.75-6.95-3.55-18.07-1.36-31.32,3.86-23.38,17.63-38.21,23.15-43.57,0,0,6.84,10.93,9.53,19.06,0,0,3.56,12.1,0,25.53-.06.23-1.36,5.11-1.36,5.11,0,0,14.72,11.23,28.94,15.66,5.41,1.69,20.21,6.3,33.02,0,18.47-9.09,26.55-37.79,26.55-37.79,0,0,5.79,10.57,7.15,20.77,1.86,13.94-4.42,28.25-4.43,28.26.44-.23,14.81-6.57,23.49-12.94,4.29-3.15,11.67-10.53,19.4-25.53,13.75-26.67,12.02-47.32,14.98-47.32Z"/><path class="cls-10" d="m717.3,0c3.76,0,12.36,33.37,4.77,69.45-5.8,27.56-19.17,47.77-28.94,59.91,2.7,8.03,2.67,14.14,2.04,18.38-.48,3.26-2.11,10.87-2.11,10.88,0,0-12.06-18.49-23.08-27.56-7.75-6.38-20.59-12.72-42.89-12.26,0,0-14.83-1.59-61.96,1.02-18.76-13.38-24.8-26.4-26.89-35.74-1.75-6.95-3.55-18.07-1.36-31.32,3.86-23.38,17.63-38.21,23.15-43.57,0,0,6.84,10.93,9.53,19.06,0,0,3.56,12.1,0,25.53-.06.23-1.36,5.11-1.36,5.11,0,0,14.72,11.23,28.94,15.66,5.41,1.69,20.21,6.3,33.02,0,18.47-9.09,26.55-37.79,26.55-37.79,0,0,5.79,10.57,7.15,20.77,1.86,13.94-4.42,28.25-4.43,28.26.44-.23,14.81-6.57,23.49-12.94,4.29-3.15,11.67-10.53,19.4-25.53C716.06,20.65,714.34,0,717.3,0Z"/><path class="cls-12" d="m670.06,131.03c-7.75-6.38-20.59-12.72-42.89-12.26,0,0-14.83-1.59-61.96,1.02-9.08-6.48-15.18-12.87-19.29-18.8-.5.53-.96,2.16-1.13,2.8-.59,2.11-3,17.17,4.09,30.64,11.26,21.41,43.29,35.53,70.13,30.64,14.02-2.55,14.51-8.09,31.66-10.21,19.27-2.39,36.91,2.33,38.13-1.7.09-.28-.09-.77-.48-1.49-4.53-6.2-11.57-15.14-18.25-20.63Z"/><path class="cls-9" d="m274.21,79.44c25.42,32.77-8.18,94.54-13.28,103.91-2.39,4.39-4.9,8.13-5.11,8.43-12,17.74-26.78,27.11-33.7,31.4-19.97,12.38-39.38,16.25-51.06,17.62-25.34,26.89-41.61,44.17-41.62,44.17,0,0,6.63,4.57,9.45,9.96,1.17,2.24,2.34,5.86,1.53,11.49-14.89.09-29.79.17-44.68.26-3.48-18.9-3.57-19.4-3.57-19.4,0,0,25.79-73.53,25.79-73.53,0,0,13.49-9.85,16.85-12.77,18.85-16.35-3.31-55.29,13.02-103.15,2.91-8.52,5.15-14.87,10.98-21.45,19.99-22.53,56.57-18.18,65.62-17.11,16.91,2,37.58,4.44,49.79,20.17Z"/></svg>